<mxfile host="app.diagrams.net" agent="Mozilla/5.0 (Windows NT 10.0; Win64; x64) AppleWebKit/537.36 (KHTML, like Gecko) Chrome/136.0.0.0 Safari/537.36" version="27.0.5">
  <diagram name="Σελίδα-1" id="nZ9dE0ernTknzVwTiY8l">
    <mxGraphModel dx="1776" dy="1378" grid="1" gridSize="10" guides="1" tooltips="1" connect="1" arrows="1" fold="1" page="1" pageScale="1" pageWidth="827" pageHeight="1169" math="0" shadow="0" adaptiveColors="none">
      <root>
        <mxCell id="0" />
        <mxCell id="1" parent="0" />
        <mxCell id="lzkj55j0BClkPCkctL9j-1" value=":Questions" style="shape=umlLifeline;perimeter=lifelinePerimeter;whiteSpace=wrap;html=1;container=1;dropTarget=0;collapsible=0;recursiveResize=0;outlineConnect=0;portConstraint=eastwest;newEdgeStyle={&quot;curved&quot;:0,&quot;rounded&quot;:0};" parent="1" vertex="1">
          <mxGeometry x="290" y="80" width="100" height="960" as="geometry" />
        </mxCell>
        <mxCell id="lzkj55j0BClkPCkctL9j-6" value="" style="html=1;points=[[0,0,0,0,5],[0,1,0,0,-5],[1,0,0,0,5],[1,1,0,0,-5]];perimeter=orthogonalPerimeter;outlineConnect=0;targetShapes=umlLifeline;portConstraint=eastwest;newEdgeStyle={&quot;curved&quot;:0,&quot;rounded&quot;:0};" parent="lzkj55j0BClkPCkctL9j-1" vertex="1">
          <mxGeometry x="45" y="40" width="10" height="70" as="geometry" />
        </mxCell>
        <mxCell id="lzkj55j0BClkPCkctL9j-16" value="" style="html=1;points=[[0,0,0,0,5],[0,1,0,0,-5],[1,0,0,0,5],[1,1,0,0,-5]];perimeter=orthogonalPerimeter;outlineConnect=0;targetShapes=umlLifeline;portConstraint=eastwest;newEdgeStyle={&quot;curved&quot;:0,&quot;rounded&quot;:0};" parent="lzkj55j0BClkPCkctL9j-1" vertex="1">
          <mxGeometry x="45" y="170" width="10" height="100" as="geometry" />
        </mxCell>
        <mxCell id="lzkj55j0BClkPCkctL9j-21" value="update()" style="html=1;verticalAlign=bottom;endArrow=open;dashed=1;endSize=8;curved=0;rounded=0;" parent="lzkj55j0BClkPCkctL9j-1" source="lzkj55j0BClkPCkctL9j-16" target="lzkj55j0BClkPCkctL9j-16" edge="1">
          <mxGeometry x="0.1818" y="-20" relative="1" as="geometry">
            <mxPoint x="60" y="220" as="sourcePoint" />
            <mxPoint x="60" y="240" as="targetPoint" />
            <Array as="points">
              <mxPoint x="100" y="220" />
              <mxPoint x="100" y="240" />
            </Array>
            <mxPoint x="20" y="20" as="offset" />
          </mxGeometry>
        </mxCell>
        <mxCell id="lzkj55j0BClkPCkctL9j-50" value="delete()" style="html=1;verticalAlign=bottom;endArrow=open;dashed=1;endSize=8;curved=0;rounded=0;exitX=1;exitY=0;exitDx=0;exitDy=5;exitPerimeter=0;" parent="lzkj55j0BClkPCkctL9j-1" source="lzkj55j0BClkPCkctL9j-16" target="lzkj55j0BClkPCkctL9j-16" edge="1">
          <mxGeometry x="0.2174" y="-20" relative="1" as="geometry">
            <mxPoint x="70" y="180" as="sourcePoint" />
            <mxPoint x="70" y="200" as="targetPoint" />
            <Array as="points">
              <mxPoint x="100" y="175" />
              <mxPoint x="100" y="200" />
            </Array>
            <mxPoint x="20" y="20" as="offset" />
          </mxGeometry>
        </mxCell>
        <mxCell id="lzkj55j0BClkPCkctL9j-2" value="" style="shape=umlLifeline;perimeter=lifelinePerimeter;whiteSpace=wrap;html=1;container=1;dropTarget=0;collapsible=0;recursiveResize=0;outlineConnect=0;portConstraint=eastwest;newEdgeStyle={&quot;curved&quot;:0,&quot;rounded&quot;:0};participant=umlActor;" parent="1" vertex="1">
          <mxGeometry x="50" y="80" width="20" height="960" as="geometry" />
        </mxCell>
        <mxCell id="lzkj55j0BClkPCkctL9j-5" value="" style="html=1;points=[[0,0,0,0,5],[0,1,0,0,-5],[1,0,0,0,5],[1,1,0,0,-5]];perimeter=orthogonalPerimeter;outlineConnect=0;targetShapes=umlLifeline;portConstraint=eastwest;newEdgeStyle={&quot;curved&quot;:0,&quot;rounded&quot;:0};" parent="lzkj55j0BClkPCkctL9j-2" vertex="1">
          <mxGeometry x="5" y="40" width="10" height="360" as="geometry" />
        </mxCell>
        <mxCell id="lzkj55j0BClkPCkctL9j-3" value=":ViewSubject" style="shape=umlLifeline;perimeter=lifelinePerimeter;whiteSpace=wrap;html=1;container=1;dropTarget=0;collapsible=0;recursiveResize=0;outlineConnect=0;portConstraint=eastwest;newEdgeStyle={&quot;curved&quot;:0,&quot;rounded&quot;:0};" parent="1" vertex="1">
          <mxGeometry x="465" y="80" width="100" height="960" as="geometry" />
        </mxCell>
        <mxCell id="lzkj55j0BClkPCkctL9j-4" value="display sorted by time(new first)" style="html=1;verticalAlign=bottom;endArrow=open;dashed=1;endSize=8;curved=0;rounded=0;" parent="1" source="lzkj55j0BClkPCkctL9j-6" edge="1">
          <mxGeometry relative="1" as="geometry">
            <mxPoint x="205" y="150" as="sourcePoint" />
            <mxPoint x="65" y="150" as="targetPoint" />
            <Array as="points">
              <mxPoint x="140" y="150" />
            </Array>
          </mxGeometry>
        </mxCell>
        <mxCell id="lzkj55j0BClkPCkctL9j-7" value="loop" style="shape=umlFrame;whiteSpace=wrap;html=1;pointerEvents=0;" parent="1" vertex="1">
          <mxGeometry x="-270" y="160" width="1060" height="320" as="geometry" />
        </mxCell>
        <mxCell id="lzkj55j0BClkPCkctL9j-8" value="[If there are questions]" style="text;html=1;align=center;verticalAlign=middle;resizable=0;points=[];autosize=1;strokeColor=none;fillColor=none;" parent="1" vertex="1">
          <mxGeometry x="-270" y="190" width="140" height="30" as="geometry" />
        </mxCell>
        <mxCell id="lzkj55j0BClkPCkctL9j-10" value="click on question" style="html=1;verticalAlign=bottom;endArrow=block;curved=0;rounded=0;exitX=1;exitY=0.059;exitDx=0;exitDy=0;exitPerimeter=0;" parent="1" edge="1">
          <mxGeometry width="80" relative="1" as="geometry">
            <mxPoint x="65" y="179.99999999999997" as="sourcePoint" />
            <mxPoint x="335" y="179.99999999999997" as="targetPoint" />
          </mxGeometry>
        </mxCell>
        <mxCell id="lzkj55j0BClkPCkctL9j-11" value="redirect()" style="html=1;verticalAlign=bottom;endArrow=block;curved=0;rounded=0;exitX=1;exitY=1;exitDx=0;exitDy=-5;exitPerimeter=0;" parent="1" source="lzkj55j0BClkPCkctL9j-6" target="lzkj55j0BClkPCkctL9j-12" edge="1">
          <mxGeometry width="80" relative="1" as="geometry">
            <mxPoint x="390" y="188" as="sourcePoint" />
            <mxPoint x="470" y="188" as="targetPoint" />
          </mxGeometry>
        </mxCell>
        <mxCell id="lzkj55j0BClkPCkctL9j-12" value="" style="html=1;points=[[0,0,0,0,5],[0,1,0,0,-5],[1,0,0,0,5],[1,1,0,0,-5]];perimeter=orthogonalPerimeter;outlineConnect=0;targetShapes=umlLifeline;portConstraint=eastwest;newEdgeStyle={&quot;curved&quot;:0,&quot;rounded&quot;:0};" parent="1" vertex="1">
          <mxGeometry x="510" y="180" width="10" height="40" as="geometry" />
        </mxCell>
        <mxCell id="lzkj55j0BClkPCkctL9j-13" value="display()" style="html=1;verticalAlign=bottom;endArrow=open;dashed=1;endSize=8;curved=0;rounded=0;exitX=0;exitY=1;exitDx=0;exitDy=-5;exitPerimeter=0;" parent="1" source="lzkj55j0BClkPCkctL9j-12" target="lzkj55j0BClkPCkctL9j-5" edge="1">
          <mxGeometry relative="1" as="geometry">
            <mxPoint x="440" y="440" as="sourcePoint" />
            <mxPoint x="360" y="440" as="targetPoint" />
          </mxGeometry>
        </mxCell>
        <mxCell id="lzkj55j0BClkPCkctL9j-14" value="alt" style="shape=umlFrame;whiteSpace=wrap;html=1;pointerEvents=0;" parent="1" vertex="1">
          <mxGeometry x="-140" y="230" width="900" height="200" as="geometry" />
        </mxCell>
        <mxCell id="lzkj55j0BClkPCkctL9j-15" value="[User delete question]" style="text;html=1;align=center;verticalAlign=middle;resizable=0;points=[];autosize=1;strokeColor=none;fillColor=none;" parent="1" vertex="1">
          <mxGeometry x="-140" y="260" width="140" height="30" as="geometry" />
        </mxCell>
        <mxCell id="lzkj55j0BClkPCkctL9j-17" value="click(X)" style="html=1;verticalAlign=bottom;endArrow=block;curved=0;rounded=0;entryX=0;entryY=0;entryDx=0;entryDy=5;entryPerimeter=0;" parent="1" source="lzkj55j0BClkPCkctL9j-5" target="lzkj55j0BClkPCkctL9j-16" edge="1">
          <mxGeometry width="80" relative="1" as="geometry">
            <mxPoint x="80" y="250" as="sourcePoint" />
            <mxPoint x="160" y="250" as="targetPoint" />
          </mxGeometry>
        </mxCell>
        <mxCell id="lzkj55j0BClkPCkctL9j-18" value="display(&quot;Επιθυμείτε την διαγραφή;&quot;)" style="html=1;verticalAlign=bottom;endArrow=open;dashed=1;endSize=8;curved=0;rounded=0;" parent="1" target="lzkj55j0BClkPCkctL9j-5" edge="1">
          <mxGeometry relative="1" as="geometry">
            <mxPoint x="330" y="280" as="sourcePoint" />
            <mxPoint x="65" y="274.5" as="targetPoint" />
          </mxGeometry>
        </mxCell>
        <mxCell id="lzkj55j0BClkPCkctL9j-19" value="click(&quot;ΝΑΙ&quot;)" style="html=1;verticalAlign=bottom;endArrow=block;curved=0;rounded=0;" parent="1" edge="1">
          <mxGeometry width="80" relative="1" as="geometry">
            <mxPoint x="65" y="300" as="sourcePoint" />
            <mxPoint x="335" y="300" as="targetPoint" />
          </mxGeometry>
        </mxCell>
        <mxCell id="lzkj55j0BClkPCkctL9j-20" value="close window" style="html=1;verticalAlign=bottom;endArrow=open;dashed=1;endSize=8;curved=0;rounded=0;exitX=0;exitY=1;exitDx=0;exitDy=-5;exitPerimeter=0;" parent="1" edge="1">
          <mxGeometry relative="1" as="geometry">
            <mxPoint x="335" y="330" as="sourcePoint" />
            <mxPoint x="65" y="330" as="targetPoint" />
          </mxGeometry>
        </mxCell>
        <mxCell id="lzkj55j0BClkPCkctL9j-22" value="display()" style="html=1;verticalAlign=bottom;endArrow=open;dashed=1;endSize=8;curved=0;rounded=0;" parent="1" target="lzkj55j0BClkPCkctL9j-5" edge="1">
          <mxGeometry relative="1" as="geometry">
            <mxPoint x="335" y="350" as="sourcePoint" />
            <mxPoint x="70" y="350" as="targetPoint" />
          </mxGeometry>
        </mxCell>
        <mxCell id="lzkj55j0BClkPCkctL9j-23" value="" style="endArrow=none;dashed=1;html=1;rounded=0;exitX=-0.002;exitY=0.406;exitDx=0;exitDy=0;exitPerimeter=0;entryX=1.002;entryY=0.403;entryDx=0;entryDy=0;entryPerimeter=0;" parent="1" source="lzkj55j0BClkPCkctL9j-14" target="lzkj55j0BClkPCkctL9j-14" edge="1">
          <mxGeometry width="50" height="50" relative="1" as="geometry">
            <mxPoint x="210" y="420" as="sourcePoint" />
            <mxPoint x="260" y="370" as="targetPoint" />
          </mxGeometry>
        </mxCell>
        <mxCell id="lzkj55j0BClkPCkctL9j-35" value=":MainMenu" style="shape=umlLifeline;perimeter=lifelinePerimeter;whiteSpace=wrap;html=1;container=1;dropTarget=0;collapsible=0;recursiveResize=0;outlineConnect=0;portConstraint=eastwest;newEdgeStyle={&quot;curved&quot;:0,&quot;rounded&quot;:0};" parent="1" vertex="1">
          <mxGeometry x="630" y="80" width="100" height="960" as="geometry" />
        </mxCell>
        <mxCell id="lzkj55j0BClkPCkctL9j-42" value="" style="html=1;points=[[0,0,0,0,5],[0,1,0,0,-5],[1,0,0,0,5],[1,1,0,0,-5]];perimeter=orthogonalPerimeter;outlineConnect=0;targetShapes=umlLifeline;portConstraint=eastwest;newEdgeStyle={&quot;curved&quot;:0,&quot;rounded&quot;:0};" parent="lzkj55j0BClkPCkctL9j-35" vertex="1">
          <mxGeometry x="45" y="305.08" width="10" height="35" as="geometry" />
        </mxCell>
        <mxCell id="lzkj55j0BClkPCkctL9j-38" value="" style="html=1;points=[[0,0,0,0,5],[0,1,0,0,-5],[1,0,0,0,5],[1,1,0,0,-5]];perimeter=orthogonalPerimeter;outlineConnect=0;targetShapes=umlLifeline;portConstraint=eastwest;newEdgeStyle={&quot;curved&quot;:0,&quot;rounded&quot;:0};" parent="1" vertex="1">
          <mxGeometry x="335" y="380.08" width="10" height="30" as="geometry" />
        </mxCell>
        <mxCell id="lzkj55j0BClkPCkctL9j-39" value="[User wants to return]" style="text;html=1;align=center;verticalAlign=middle;resizable=0;points=[];autosize=1;strokeColor=none;fillColor=none;" parent="1" vertex="1">
          <mxGeometry x="-140" y="360.08" width="140" height="30" as="geometry" />
        </mxCell>
        <mxCell id="lzkj55j0BClkPCkctL9j-40" value="click(&quot;Επιστροφή&quot;)" style="html=1;verticalAlign=bottom;endArrow=block;curved=0;rounded=0;entryX=0;entryY=0;entryDx=0;entryDy=5;entryPerimeter=0;" parent="1" target="lzkj55j0BClkPCkctL9j-38" edge="1">
          <mxGeometry width="80" relative="1" as="geometry">
            <mxPoint x="65.00000000000023" y="385.08" as="sourcePoint" />
            <mxPoint x="150" y="384.58" as="targetPoint" />
          </mxGeometry>
        </mxCell>
        <mxCell id="lzkj55j0BClkPCkctL9j-41" value="redirect()" style="html=1;verticalAlign=bottom;endArrow=block;curved=0;rounded=0;" parent="1" target="lzkj55j0BClkPCkctL9j-42" edge="1">
          <mxGeometry width="80" relative="1" as="geometry">
            <mxPoint x="345" y="394.58" as="sourcePoint" />
            <mxPoint x="425" y="394.58" as="targetPoint" />
          </mxGeometry>
        </mxCell>
        <mxCell id="lzkj55j0BClkPCkctL9j-43" value="display()" style="html=1;verticalAlign=bottom;endArrow=open;dashed=1;endSize=8;curved=0;rounded=0;exitX=0;exitY=1;exitDx=0;exitDy=-5;exitPerimeter=0;" parent="1" source="lzkj55j0BClkPCkctL9j-42" edge="1">
          <mxGeometry x="0.5246" relative="1" as="geometry">
            <mxPoint x="470" y="424.58" as="sourcePoint" />
            <mxPoint x="65.00000000000023" y="415.08" as="targetPoint" />
            <mxPoint as="offset" />
          </mxGeometry>
        </mxCell>
        <mxCell id="lzkj55j0BClkPCkctL9j-44" value="" style="endArrow=none;dashed=1;html=1;rounded=0;entryX=1;entryY=0.907;entryDx=0;entryDy=0;entryPerimeter=0;" parent="1" edge="1">
          <mxGeometry width="50" height="50" relative="1" as="geometry">
            <mxPoint x="-270" y="441.08" as="sourcePoint" />
            <mxPoint x="790" y="439.16000000000014" as="targetPoint" />
          </mxGeometry>
        </mxCell>
        <mxCell id="lzkj55j0BClkPCkctL9j-45" value="[If there are no questions]" style="text;html=1;align=center;verticalAlign=middle;resizable=0;points=[];autosize=1;strokeColor=none;fillColor=none;" parent="1" vertex="1">
          <mxGeometry x="-270" y="440.08" width="160" height="30" as="geometry" />
        </mxCell>
        <mxCell id="lzkj55j0BClkPCkctL9j-47" value="" style="html=1;points=[[0,0,0,0,5],[0,1,0,0,-5],[1,0,0,0,5],[1,1,0,0,-5]];perimeter=orthogonalPerimeter;outlineConnect=0;targetShapes=umlLifeline;portConstraint=eastwest;newEdgeStyle={&quot;curved&quot;:0,&quot;rounded&quot;:0};" parent="1" vertex="1">
          <mxGeometry x="335" y="445.08" width="10" height="20" as="geometry" />
        </mxCell>
        <mxCell id="lzkj55j0BClkPCkctL9j-48" value="display(&quot;Δεν υπάρχει κάποια ερώτηση&quot;)" style="html=1;verticalAlign=bottom;endArrow=open;dashed=1;endSize=8;curved=0;rounded=0;" parent="1" edge="1">
          <mxGeometry relative="1" as="geometry">
            <mxPoint x="335" y="464.08" as="sourcePoint" />
            <mxPoint x="65.00000000000023" y="464.08" as="targetPoint" />
            <mxPoint as="offset" />
          </mxGeometry>
        </mxCell>
      </root>
    </mxGraphModel>
  </diagram>
</mxfile>
